<?xml version="1.0" encoding="UTF-8"?>
<svg width="60px" height="60px" viewBox="0 0 60 60" version="1.1" xmlns="http://www.w3.org/2000/svg" xmlns:xlink="http://www.w3.org/1999/xlink">
    <!-- Generator: Sketch 40 (33762) - http://www.bohemiancoding.com/sketch -->
    <title>3</title>
    <desc>Created with Sketch.</desc>
    <defs></defs>
    <g id="Page-1" stroke="none" stroke-width="1" fill="none" fill-rule="evenodd">
        <g id="Artboard" transform="translate(-381.000000, -117.000000)">
            <g id="3" transform="translate(381.000000, 117.000000)">
                <circle id="Oval" fill="#FFE890" cx="30" cy="30" r="30"></circle>
                <path d="M40.7692308,45 L36.1538462,45 C35.1282051,45 34.1025641,44.4915254 33.0769231,43.9830508 L33.0769231,43.9830508 C32.5641026,42.9661017 32.0512821,41.9491525 32.0512821,40.9322034 L32.0512821,39.4067797 L26.9230769,39.4067797 L26.9230769,40.9322034 C26.9230769,41.9491525 26.4102564,42.9661017 25.8974359,43.9830508 L25.8974359,43.9830508 L25.8974359,43.9830508 C24.8717949,44.4915254 23.8461538,45 22.3076923,45 L18.2051282,45 C17.1794872,45 16.1538462,44.4915254 15.1282051,43.9830508 L15.1282051,43.9830508 C14.6153846,42.9661017 14.1025641,41.9491525 14.1025641,40.9322034 L14.1025641,35.3389831 L10.5128205,35.3389831 C10,35.3389831 10,34.8305085 10,34.8305085 L10,25.6779661 C10,25.6779661 10,25.1694915 10.5128205,25.1694915 L14.1025641,25.1694915 L14.1025641,24.1525424 C14.1025641,23.1355932 14.6153846,22.1186441 15.1282051,21.1016949 L15.1282051,21.1016949 L15.1282051,21.1016949 C15.6410256,20.5932203 16.6666667,20.5932203 17.6923077,20.0847458 L17.6923077,15.5084746 C17.6923077,15.5084746 17.6923077,15 18.2051282,15 L18.2051282,15 L25.3846154,20.0847458 L40.7692308,20.0847458 C41.7948718,20.0847458 42.8205128,20.5932203 43.8461538,21.1016949 C44.3589744,21.6101695 44.8717949,23.1355932 44.8717949,24.1525424 L44.8717949,25.1694915 L49.4871795,25.1694915 L49.4871795,21.1016949 L47.4358974,21.1016949 L47.4358974,23.1355932 C47.4358974,23.1355932 47.4358974,23.6440678 46.9230769,23.6440678 C46.9230769,23.6440678 46.4102564,23.6440678 46.4102564,23.1355932 L46.4102564,20.5932203 C46.4102564,20.5932203 46.4102564,20.0847458 46.9230769,20.0847458 L49.4871795,20.0847458 C49.4871795,20.0847458 50,20.0847458 50,20.5932203 L50,25.6779661 C50,25.6779661 50,26.1864407 49.4871795,26.1864407 L44.8717949,26.1864407 L44.8717949,40.9322034 C44.8717949,41.9491525 44.3589744,42.9661017 43.8461538,43.9830508 C42.8205128,44.4915254 41.7948718,45 40.7692308,45 L40.7692308,45 L40.7692308,45 Z M18.2051282,26.1864407 L19.2307692,26.1864407 C19.2307692,26.1864407 19.7435897,26.1864407 19.7435897,25.6779661 C19.7435897,25.6779661 19.7435897,25.1694915 19.2307692,25.1694915 L18.2051282,25.1694915 C18.2051282,25.1694915 17.6923077,25.1694915 18.2051282,26.1864407 C17.6923077,25.6779661 18.2051282,26.1864407 18.2051282,26.1864407 L18.2051282,26.1864407 L18.2051282,26.1864407 Z M25.8974359,23.6440678 L33.5897436,23.6440678 C33.5897436,23.6440678 34.1025641,23.6440678 34.1025641,23.1355932 C34.1025641,23.1355932 34.1025641,22.6271186 33.5897436,22.6271186 L25.8974359,22.6271186 C25.3846154,23.1355932 25.3846154,23.1355932 25.8974359,23.6440678 C25.3846154,23.6440678 25.3846154,23.6440678 25.8974359,23.6440678 L25.8974359,23.6440678 L25.8974359,23.6440678 Z M36.1538462,43.9830508 L40.7692308,43.9830508 C41.7948718,43.9830508 42.8205128,43.4745763 43.3333333,42.9661017 C43.8461538,42.4576271 44.3589744,41.440678 44.3589744,40.4237288 L44.3589744,25.1694915 L44.3589744,24.1525424 C44.3589744,23.1355932 43.8461538,22.1186441 43.3333333,21.6101695 C42.3076923,21.6101695 41.7948718,21.1016949 40.7692308,21.1016949 L25.3846154,21.1016949 L25.3846154,21.1016949 L25.3846154,21.1016949 L18.7179487,16.0169492 L18.7179487,20.5932203 C18.7179487,20.5932203 18.7179487,21.1016949 18.2051282,21.1016949 C17.1794872,21.1016949 16.1538462,21.6101695 15.6410256,22.1186441 L15.6410256,22.1186441 C15.1282051,22.6271186 14.6153846,23.6440678 14.6153846,24.1525424 L14.6153846,25.1694915 C14.6153846,25.1694915 14.6153846,25.6779661 14.1025641,25.6779661 L10.5128205,25.6779661 L10.5128205,33.8135593 L14.1025641,33.8135593 C14.1025641,33.8135593 14.6153846,33.8135593 14.6153846,34.3220339 L14.6153846,40.4237288 C14.6153846,41.440678 15.1282051,42.4576271 15.6410256,42.9661017 L15.6410256,42.9661017 C16.1538462,43.4745763 17.1794872,43.9830508 18.2051282,43.9830508 L22.8205128,43.9830508 C23.8461538,43.9830508 24.8717949,43.4745763 25.3846154,42.9661017 L25.3846154,42.9661017 C25.3846154,42.4576271 25.8974359,41.9491525 25.8974359,40.9322034 L25.8974359,38.8983051 C25.8974359,38.8983051 25.8974359,38.3898305 26.4102564,38.3898305 L32.5641026,38.3898305 C32.5641026,38.3898305 33.0769231,38.3898305 33.0769231,38.8983051 L33.0769231,40.4237288 C33.0769231,41.440678 33.5897436,42.4576271 34.1025641,42.9661017 L34.1025641,42.9661017 C34.6153846,43.9830508 35.1282051,43.9830508 36.1538462,43.9830508 L36.1538462,43.9830508 Z" id="XMLID_34_" fill="#30383B"></path>
            </g>
        </g>
    </g>
</svg>