<?xml version="1.0" encoding="UTF-8"?>
<svg width="60px" height="60px" viewBox="0 0 60 60" version="1.1" xmlns="http://www.w3.org/2000/svg" xmlns:xlink="http://www.w3.org/1999/xlink">
    <!-- Generator: Sketch 40 (33762) - http://www.bohemiancoding.com/sketch -->
    <title>1</title>
    <desc>Created with Sketch.</desc>
    <defs></defs>
    <g id="Page-1" stroke="none" stroke-width="1" fill="none" fill-rule="evenodd">
        <g id="Artboard" transform="translate(-205.000000, -117.000000)">
            <g id="1" transform="translate(205.000000, 117.000000)">
                <circle id="Oval" fill="#FFE890" cx="30" cy="30" r="30"></circle>
                <path d="M22.4963444,39 C23.2460218,39 23.7458068,39.25 24.2455917,39.75 C24.7453767,40.25 24.9952692,40.75 24.9952692,41.5 C24.9952692,42.25 24.7453767,42.75 24.2455917,43.25 L24.2455917,43.25 C23.7458068,43.75 23.2460218,44 22.4963444,44 C21.7466669,44 21.246882,43.75 20.747097,43.25 C20.247312,42.75 19.9974196,42.25 19.9974196,41.5 C19.9974196,40.75 20.247312,40.25 20.747097,39.75 C21.246882,39.25 21.7466669,39 22.4963444,39 L22.4963444,39 L22.4963444,39 Z M28.3938069,24.4615385 L16.2847313,24.4615385 C15.5993119,24.4615385 15.1423656,24.6923077 14.6854194,25.1538462 C14.2284731,25.6153846 14,26.0769231 14,26.7692308 L14,42.6923077 C14,43.3846154 14.2284731,43.8461538 14.6854194,44.3076923 C15.1423656,44.7692308 15.5993119,45 16.2847313,45 L28.62228,45 C28.8507532,45 29.0792263,44.7692308 29.0792263,44.5384615 L29.0792263,44.0769231 L37.532732,44.0769231 C39.8174632,44.0769231 42.3568262,41.9881888 43.9561381,40.3728042 C44.0083319,40.3200858 45.125226,39.1811326 44.1069641,40.2211832 C43.0887022,41.2612338 45.1574314,39.1974439 45.6182416,38.1001016 C46.1095,36.9302518 45.9862376,36.6310565 45.9862376,35.5384615 L45.9862376,28.3846154 C45.9862376,27.6923077 45.7577645,27.2307692 45.3008182,26.7692308 C44.843872,26.3076923 44.3869257,26.0769231 43.7015063,26.0769231 L37.532732,26.0769231 L38.6750976,17.5384615 L38.6750976,16.6153846 C38.6750976,16.3846154 38.4466245,15.9230769 38.2181513,15.6923077 C37.9896782,15.4615385 37.7612051,15.2307692 37.532732,15 C36.8473126,15 36.6188394,15 36.1618932,15 L35.4764738,15 C35.0195276,15 34.5625813,15 34.3341082,15.2307692 C33.8771619,15.4615385 33.6486888,15.9230769 33.4202157,16.1538462 L28.8507532,24.9230769 C28.8507532,24.6923077 28.62228,24.4615385 28.3938069,24.4615385 Z M34.2484308,16.9666667 C34.4769039,16.725 34.4769039,16.4833333 34.705377,16.2416667 C34.9338501,16 35.1623233,16 35.3907964,16 L36.0762158,16 C36.3046889,16 36.533162,16 36.7616352,16.2416667 L36.7616352,16.2416667 L36.7616352,16.2416667 C36.9901083,16.2416667 37.2185814,16.4833333 37.2185814,16.725 C37.4470545,16.9666667 37.4470545,17.2083333 37.4470545,17.2083333 L37.4470545,17.9333333 L36.533162,27.3583333 C36.533162,27.6 36.7616352,27.8416667 36.7616352,27.8416667 L36.7616352,27.8416667 L36.7616352,27.8416667 L43.3873558,27.8416667 C43.8443021,27.8416667 44.0727752,28.0833333 44.5297214,28.325 L44.5297214,28.325 C44.7581946,28.5666667 44.9866677,29.05 44.9866677,29.5333333 L44.9866677,37.025 C44.9866677,39.2 44.0727752,41.1333333 42.7019364,42.5833333 C41.3310977,44.0333333 39.5033127,45 37.4470545,45 L28.9935489,45 L28.9935489,27.3583333 L34.2484308,16.9666667 L34.2484308,16.9666667 L34.2484308,16.9666667 Z M27.993979,25 L16.5412795,25 C16.100791,25 15.8805468,25.2317073 15.4400584,25.4634146 C15.2198141,25.695122 14.9995699,25.9268293 14.9995699,26.3902439 L14.9995699,42.3780488 C14.9995699,42.8414634 15.2198141,43.0731707 15.4400584,43.5365854 C15.6603026,43.7682927 16.100791,44 16.5412795,44 L27.993979,44 L27.993979,25 L27.993979,25 L27.993979,25 Z M23.4959143,39.8333333 C23.2460218,39.4166667 22.7462368,39 22.4963444,39 C21.9965594,39 21.7466669,39.4166667 21.4967744,39.8333333 C21.246882,40.25 20.9969895,41.0833333 20.9969895,41.5 C20.9969895,42.3333333 21.246882,42.75 21.4967744,43.1666667 C21.7466669,43.5833333 22.2464519,44 22.4963444,44 C22.9961293,44 23.2460218,43.5833333 23.4959143,43.1666667 L23.4959143,43.1666667 C23.7458068,42.75 23.9956993,41.9166667 23.9956993,41.5 C23.9956993,41.0833333 23.7458068,40.25 23.4959143,39.8333333 L23.4959143,39.8333333 Z" id="Shape" fill="#000000"></path>
            </g>
        </g>
    </g>
</svg>