<?xml version="1.0" encoding="UTF-8"?>
<svg width="60px" height="60px" viewBox="0 0 60 60" version="1.1" xmlns="http://www.w3.org/2000/svg" xmlns:xlink="http://www.w3.org/1999/xlink">
    <!-- Generator: Sketch 40 (33762) - http://www.bohemiancoding.com/sketch -->
    <title>2</title>
    <desc>Created with Sketch.</desc>
    <defs></defs>
    <g id="Page-1" stroke="none" stroke-width="1" fill="none" fill-rule="evenodd">
        <g id="Artboard" transform="translate(-288.000000, -117.000000)">
            <g id="2" transform="translate(288.000000, 117.000000)">
                <circle id="Oval" fill="#FFE890" cx="30" cy="30" r="30"></circle>
                <path d="M18.1538462,13.0434783 L24.0769231,13.0434783 L24.0769231,12.5217391 C24.0769231,12.5217391 24.0769231,12 24.6153846,12 L35.3846154,12 C35.3846154,12 35.9230769,12 35.9230769,12.5217391 L35.9230769,13.0434783 L41.8461538,13.0434783 C42.3846154,13.0434783 42.9230769,13.0434783 43.4615385,13.5652174 L43.4615385,13.5652174 C44,14.0869565 44,14.6086957 44,15.1304348 L44,45.9130435 C44,46.4347826 44,46.9565217 43.4615385,47.4782609 C43.4615385,48 42.9230769,48 41.8461538,48 L18.1538462,48 C17.6153846,48 17.0769231,48 16.5384615,47.4782609 L16.5384615,47.4782609 L16.5384615,47.4782609 L16.5384615,47.4782609 C16,46.9565217 16,46.4347826 16,45.9130435 L16,15.1304348 C16,14.6086957 16,14.0869565 16.5384615,13.5652174 C17.0769231,13.0434783 17.6153846,13.0434783 18.1538462,13.0434783 L18.1538462,13.0434783 L18.1538462,13.0434783 Z M23,34.9565217 L21.9230769,34.9565217 C21.9230769,34.9565217 21.3846154,34.9565217 21.3846154,35.4782609 C21.3846154,35.4782609 21.3846154,36 21.9230769,36 L23,36 C23.5384615,35.4782609 23.5384615,35.4782609 23,34.9565217 L23,34.9565217 L23,34.9565217 L23,34.9565217 Z M23,30.7826087 L21.9230769,30.7826087 C21.9230769,30.7826087 21.3846154,30.7826087 21.3846154,31.3043478 C21.3846154,31.3043478 21.3846154,31.826087 21.9230769,31.826087 L23,31.826087 C23.5384615,31.3043478 23.5384615,31.3043478 23,30.7826087 L23,30.7826087 L23,30.7826087 L23,30.7826087 Z M23,26.6086957 L21.9230769,26.6086957 C21.9230769,26.6086957 21.3846154,26.6086957 21.3846154,27.1304348 C21.3846154,27.1304348 21.3846154,27.6521739 21.9230769,27.6521739 L23,27.6521739 C23.5384615,27.1304348 23.5384615,27.1304348 23,26.6086957 L23,26.6086957 L23,26.6086957 L23,26.6086957 Z M23,22.4347826 L21.9230769,22.4347826 C21.9230769,22.4347826 21.3846154,22.4347826 21.3846154,22.9565217 C21.3846154,22.9565217 21.3846154,23.4782609 21.9230769,23.4782609 L23,23.4782609 C23.5384615,23.4782609 23.5384615,22.9565217 23,22.4347826 L23,22.4347826 L23,22.4347826 L23,22.4347826 Z M38.0769231,22.4347826 L25.6923077,22.4347826 C25.6923077,22.4347826 25.1538462,22.4347826 25.1538462,22.9565217 C25.1538462,22.9565217 25.1538462,23.4782609 25.6923077,23.4782609 L38.0769231,23.4782609 C38.0769231,23.4782609 38.6153846,22.9565217 38.0769231,22.4347826 L38.0769231,22.4347826 L38.0769231,22.4347826 L38.0769231,22.4347826 Z M38.0769231,26.6086957 L25.6923077,26.6086957 C25.6923077,26.6086957 25.1538462,26.6086957 25.1538462,27.1304348 C25.1538462,27.1304348 25.1538462,27.6521739 25.6923077,27.6521739 L38.0769231,27.6521739 C38.0769231,27.1304348 38.6153846,27.1304348 38.0769231,26.6086957 L38.0769231,26.6086957 L38.0769231,26.6086957 L38.0769231,26.6086957 Z M35.3846154,34.9565217 L25.6923077,34.9565217 C25.6923077,34.9565217 25.1538462,34.9565217 25.1538462,35.4782609 C25.1538462,35.4782609 25.1538462,36 25.6923077,36 L34.8461538,36 C35.3846154,35.4782609 35.9230769,35.4782609 35.3846154,34.9565217 L35.3846154,34.9565217 L35.3846154,34.9565217 L35.3846154,34.9565217 Z M38.0769231,30.7826087 L25.6923077,30.7826087 C25.6923077,30.7826087 25.1538462,30.7826087 25.1538462,31.3043478 C25.1538462,31.3043478 25.1538462,31.826087 25.6923077,31.826087 L38.0769231,31.826087 C38.0769231,31.3043478 38.6153846,31.3043478 38.0769231,30.7826087 L38.0769231,30.7826087 L38.0769231,30.7826087 L38.0769231,30.7826087 Z M25.1538462,13.0434783 L25.1538462,15.6521739 L25.1538462,17.2173913 L34.8461538,17.2173913 L34.8461538,15.6521739 L34.8461538,13.0434783 L34.8461538,12.5217391 L25.1538462,13.0434783 L25.1538462,13.0434783 L25.1538462,13.0434783 L25.1538462,13.0434783 Z M19.2307692,15.1304348 L24.6153846,15.1304348 L24.6153846,13.5652174 L18.1538462,13.5652174 C17.6153846,13.5652174 17.0769231,13.5652174 17.0769231,14.0869565 C17.0769231,14.0869565 16.5384615,14.6086957 16.5384615,15.1304348 L16.5384615,45.9130435 C16.5384615,46.4347826 16.5384615,46.9565217 17.0769231,46.9565217 L17.0769231,46.9565217 C17.6153846,47.4782609 17.6153846,47.4782609 18.1538462,47.4782609 L41.8461538,47.4782609 C42.3846154,47.4782609 42.9230769,47.4782609 42.9230769,46.9565217 C43.4615385,46.4347826 43.4615385,46.4347826 43.4615385,45.9130435 L43.4615385,15.1304348 C43.4615385,14.6086957 43.4615385,14.0869565 42.9230769,14.0869565 L42.9230769,14.0869565 C42.9230769,13.5652174 42.3846154,13.5652174 41.8461538,13.5652174 L35.9230769,13.5652174 L35.9230769,15.1304348 L41.3076923,15.1304348 C41.3076923,15.1304348 41.8461538,15.1304348 41.8461538,15.6521739 L41.8461538,44.8695652 C41.8461538,44.8695652 41.8461538,45.3913043 41.3076923,45.3913043 L19.2307692,45.3913043 C19.2307692,45.3913043 18.6923077,45.3913043 18.6923077,44.8695652 L19.2307692,15.1304348 C18.6923077,15.6521739 19.2307692,15.1304348 19.2307692,15.1304348 L19.2307692,15.1304348 L19.2307692,15.1304348 Z M24.6153846,16.173913 L19.7692308,16.173913 L19.7692308,44.8695652 L40.7692308,44.8695652 L40.7692308,16.173913 L35.9230769,16.173913 L35.9230769,17.2173913 C35.9230769,17.2173913 35.9230769,17.7391304 35.3846154,17.7391304 L24.6153846,17.7391304 C24.6153846,17.7391304 24.0769231,17.7391304 24.0769231,17.2173913 L24.0769231,16.173913 L24.6153846,16.173913 Z" id="XMLID_42_" fill="#000222"></path>
            </g>
        </g>
    </g>
</svg>