<?xml version="1.0" encoding="utf-8"?>
<!-- Generator: Adobe Illustrator 20.0.0, SVG Export Plug-In . SVG Version: 6.00 Build 0)  -->
<svg version="1.1" id="Слой_1" xmlns="http://www.w3.org/2000/svg" xmlns:xlink="http://www.w3.org/1999/xlink" x="0px" y="0px"
	 viewBox="0 0 200 85" style="enable-background:new 0 0 200 85;" xml:space="preserve">
<style type="text/css">
	.st0{fill:none;stroke:#000000;stroke-miterlimit:10;}
	.st1{font-family:'NotoSerif';}
	.st2{font-size:12px;}
	.st3{font-size:16px;}
	.st4{fill:none;}
	.st5{fill:none;stroke:#1D1D1B;stroke-miterlimit:10;}
</style>
<g>
	<polyline class="st0" points="161.4,70.9 199,70.9 199,0.9 1,0.9 1,70.9 38.6,70.9 	"/>
</g>
<text transform="matrix(1 0 0 1 28.8403 19.5971)" class="st1 st2">Экспертное агентство</text>
<text transform="matrix(1 0 0 1 19.3448 43.0973)" class="st1 st3">ДЕНИСА ЛЕУШИНА</text>
<rect id="_x3C_Фрагмент_x3E__1_" x="75" y="116.2" class="st4" width="1" height="7"/>
<g>
	<path id="XMLID_1_" class="st5" d="M72.5,52.6c-1.6,7.3-2.1,14.7-1.2,21.9c-0.2-0.3-0.4-0.6-0.6-0.9"/>
	<path id="XMLID_2_" class="st5" d="M46,60.2c26.1-5.5,53-7.8,79.7-6.8c-0.5,1.7-2.5,2.5-4.2,3c-25.4,7.2-50.9,14.5-76.3,21.7
		c1.3-0.1,2.5-0.2,3.8-0.3"/>
	<path class="st5" d="M84.5,59.9c-1.7,7.7-2.6,16.4-2.6,24.1c4.8,1,9.6-1,13.5-2.9c16.4-4.8,33.7-7.7,50.5-11.3"/>
	<path id="XMLID_22_" class="st5" d="M89.2,78.3c0.4-0.9,1.3-1.4,2-2.1s1.2-1.8,0.6-2.6c-0.5-0.5-1.4-0.5-2,0
		c-0.6,0.4-0.9,1.2-1,1.9c-0.3,1.2-0.3,2.6,0.6,3.5c1.4,1.4,3.9,0.4,5.4-1s2.6-3.1,3.4-5c0.1-0.4,0.3-0.8,0.1-1.1
		c-0.1-0.4-0.7-0.6-0.9-0.3C97,72.7,96.7,73.9,97,75s1.4,2.1,2.5,1.9c0.5-0.1,1-0.4,1.4-0.8c1.3-1.2,2.2-2.8,2.6-4.5
		c-0.9,1-0.7,2.8,0.4,3.6c1.1,0.8,2.8,0.6,3.6-0.5"/>
	<path id="XMLID_5_" class="st5" d="M111.8,69c0.7-0.9-3.3,0.3-1.9,1.8c1.1,1.3,4.6,0.5,4.8,0.7s-3.1,2.8-5.1,3
		c0.3,0.1,0.6,0.1,0.8-0.1"/>
	<path id="XMLID_20_" class="st5" d="M114.7,61.4c0.2,3.7,1.2,7.3,2.7,10.7c-0.6-1.4,0.8-3.1,2.3-3s2.7,1.6,2.6,3.1"/>
	<path id="XMLID_19_" class="st5" d="M123.3,65.2c-0.2,0.5,0.2,2.1,0.7,3.1c0.4,1,0.9,2.4,0.8,3.2s-1-1.7-0.5-1.2"/>
	<path id="XMLID_17_" class="st5" d="M123.3,62.8c0.2-0.7,0.1-1.5-0.1-2.2c-0.1,0.4-0.2,0.7-0.3,1.1"/>
	<path class="st5" d="M126.9,66.1c0.2,1.3,0.6,2.6,1.1,3.8c-0.8-1.7-0.4-3.8,1.8-3.2c1.2,1.9,3.2,0.9,5.1,0.9
		c5.8-1,10.6-2.9,16.3-3.5"/>
</g>
</svg>
